<svg xmlns="http://www.w3.org/2000/svg" width="128" height="128" viewBox="0 0 128 128" fill="none">
  <rect x="4" y="4" width="120" height="120" rx="28" fill="#F5F0E8"/>
  <g stroke="#1A1A1A" stroke-width="7" stroke-linecap="round" stroke-linejoin="round" fill="#2B2B2B">
    <g transform="scale(1.0)"><path d="M64 18 C82 26, 88 48, 64 62 C40 48, 46 26, 64 18 Z" /><path d="M26 64 C34 46, 56 40, 70 64 C56 88, 34 82, 26 64 Z" /><path d="M102 64 C94 46, 72 40, 58 64 C72 88, 94 82, 102 64 Z" /><path d="M64 110 C46 102, 40 80, 64 66 C88 80, 82 102, 64 110 Z" /></g>
  </g>
</svg>
